<?xml version="1.0" encoding="utf-8"?>
<!-- Generator: Adobe Illustrator 27.0.1, SVG Export Plug-In . SVG Version: 6.00 Build 0)  -->
<svg version="1.1" id="Layer_1" xmlns="http://www.w3.org/2000/svg" xmlns:xlink="http://www.w3.org/1999/xlink" x="0px" y="0px"
	 viewBox="0 0 512 512" style="enable-background:new 0 0 512 512;" xml:space="preserve">
<style type="text/css">
	.st0{fill:#3A0CA3;}
	.st1{display:none;fill:#3A0CA3;}
</style>
<g>
	<g>
		<path class="st0" d="M0,512C0,341.33,0,170.67,0,0c170.67,0,341.33,0,512,0c0,170.67,0,341.33,0,512C341.33,512,170.67,512,0,512z
			 M20.38,256c0,74.26,0,148.53,0,222.79c0,3.6-0.02,7.2-0.04,10.8c-0.01,1.96,0.35,2.36,2.28,2.43c0.4,0.01,0.8,0,1.2,0
			c154.93,0,309.85,0,464.78,0c0.67,0,1.34,0.04,2-0.03c1.23-0.13,1.65-0.57,1.69-1.79c0.04-1.06-0.04-2.13-0.04-3.2
			c0-153.99,0-307.99,0-461.98c0-1,0.08-2,0.05-3c-0.05-1.22-0.47-1.67-1.69-1.8c-0.73-0.08-1.46-0.04-2.2-0.04
			c-154.86,0-309.72,0-464.58,0c-0.53,0-1.07-0.03-1.6,0.02c-1.45,0.13-1.86,0.56-1.88,2.03c-0.02,1.27,0.05,2.53,0.05,3.8
			C20.38,102.67,20.38,179.34,20.38,256z"/>
		<path class="st1" d="M20.38,256c0-76.66,0-153.33,0-229.99c0-1.27-0.06-2.53-0.05-3.8c0.02-1.46,0.44-1.9,1.88-2.03
			c0.53-0.05,1.07-0.02,1.6-0.02c154.86,0,309.72,0,464.58,0c0.73,0,1.47-0.03,2.2,0.04c1.22,0.13,1.65,0.58,1.69,1.8
			c0.04,1-0.05,2-0.05,3c0,153.99,0,307.99,0,461.98c0,1.07,0.08,2.13,0.04,3.2c-0.04,1.23-0.46,1.66-1.69,1.79
			c-0.66,0.07-1.33,0.03-2,0.03c-154.93,0-309.85,0-464.78,0c-0.4,0-0.8,0.01-1.2,0c-1.92-0.07-2.29-0.47-2.28-2.43
			c0.02-3.6,0.04-7.2,0.04-10.8C20.38,404.53,20.38,330.26,20.38,256z M64.54,82.98c0.07,0,0.15,0,0.22,0c0,3.27-0.09,6.54,0.02,9.8
			c0.4,12.72,0.82,25.44,1.31,38.16c0.29,7.59,0.68,15.18,1.14,22.77c0.23,3.79,0.86,7.55,1.09,11.34
			c0.69,11.38,2.17,22.67,3.83,33.95c0.69,4.68,1.43,9.34,2.17,14.01c0.23,1.44,0.57,2.87,0.82,4.31c0.74,4.33,1.43,8.66,2.2,12.98
			c0.42,2.36,0.93,4.7,1.45,7.04c0.8,3.63,1.64,7.26,2.48,10.89c0.09,0.39,0.27,0.76,0.37,1.14c0.4,1.54,0.79,3.09,1.19,4.63
			c0.2,0.77,0.38,1.55,0.61,2.31c1.06,3.56,2.14,7.12,3.21,10.68c0.1,0.32,0.1,0.66,0.2,0.98c0.37,1.28,0.76,2.55,1.14,3.82
			c0.26,0.89,0.52,1.78,0.79,2.68c0.3,1.02,0.59,2.04,0.9,3.06c0.34,1.08,0.7,2.15,1.06,3.22c0.34,1.01,0.67,2.01,1.02,3.02
			c0.32,0.94,0.66,1.88,0.98,2.82c0.3,0.88,0.57,1.77,0.9,2.63c0.97,2.54,1.97,5.07,2.93,7.61c0.91,2.42,1.69,4.88,2.69,7.26
			c1.64,3.91,3.4,7.78,5.13,11.66c0.73,1.64,1.5,3.25,2.22,4.89c0.88,2,1.64,4.07,2.61,6.03c1.61,3.26,3.35,6.46,5.04,9.69
			c0.8,1.52,1.62,3.04,2.43,4.56c0.99,1.87,1.94,3.76,2.97,5.61c1,1.8,2.06,3.55,3.1,5.32c1.61,2.75,3.21,5.49,4.83,8.24
			c0.64,1.09,1.26,2.19,1.95,3.24c1.68,2.54,3.43,5.05,5.11,7.59c1.65,2.49,3.2,5.05,4.91,7.5c2.39,3.43,4.87,6.8,7.35,10.17
			c1.73,2.35,3.48,4.7,5.31,6.98c2.87,3.57,5.82,7.09,8.74,10.62c1.74,2.1,3.46,4.22,5.25,6.28c1.61,1.85,3.33,3.62,4.97,5.45
			c2.12,2.38,4.11,4.89,6.31,7.18c4.38,4.56,8.85,9.03,13.33,13.49c2.78,2.77,5.64,5.46,8.49,8.16c1.05,1,1.51,1.01,2.86,0.33
			c0.83-0.42,1.66-0.85,2.49-1.26c1.84-0.91,3.7-1.78,5.53-2.71c2.3-1.17,4.58-2.37,6.86-3.57c0.41-0.21,0.79-0.47,1.2-0.69
			c1.86-1.01,3.69-2.06,5.58-3.01c1.89-0.96,3.83-1.81,5.72-2.75c2.25-1.12,4.48-2.29,6.72-3.44c1.77-0.91,3.54-1.8,5.3-2.74
			c1.81-0.96,3.58-2.01,5.41-2.94c1.83-0.93,3.75-1.68,5.54-2.66c0.56-0.3,1.06-1.03,1.23-1.65c0.24-0.92-0.55-1.39-1.28-1.8
			c-0.81-0.45-1.61-0.91-2.4-1.4c-1.42-0.87-2.82-1.74-4.23-2.62c-2.64-1.65-5.32-3.25-7.89-4.99c-3.35-2.26-6.63-4.64-9.93-6.98
			c-3.19-2.26-6.43-4.46-9.55-6.82c-3.39-2.57-6.77-5.16-9.95-7.97c-6.13-5.42-12.21-10.89-18.11-16.55
			c-4.42-4.23-8.56-8.75-12.75-13.21c-2.23-2.37-4.4-4.82-6.44-7.36c-3.24-4.04-6.41-8.15-9.5-12.32c-2.41-3.25-4.69-6.6-6.96-9.96
			c-1.6-2.36-3.11-4.79-4.62-7.21c-1.72-2.76-3.47-5.5-5.05-8.33c-1.68-3.01-3.16-6.12-4.74-9.19c-0.76-1.47-1.56-2.93-2.3-4.41
			c-1.06-2.14-2.12-4.27-3.1-6.44c-1.01-2.23-1.92-4.51-2.9-6.75c-0.95-2.19-1.93-4.36-2.89-6.54c-0.13-0.3-0.17-0.64-0.28-0.96
			c-0.91-2.56-1.81-5.12-2.73-7.68c-1.05-2.93-2.12-5.87-3.17-8.8c-0.02-0.06-0.02-0.13-0.04-0.2c-0.9-3.2-1.8-6.39-2.69-9.59
			c-0.55-1.98-1.07-3.97-1.61-5.96c-0.14-0.51-0.21-1.06-0.41-1.54c-0.88-2.11-1.37-4.3-1.65-6.57c-0.14-1.11-0.57-2.19-0.86-3.28
			c-0.24-0.9-0.52-1.79-0.72-2.7c-0.59-2.8-1.16-5.6-1.73-8.4c-0.15-0.72-0.27-1.44-0.38-2.16c-0.93-6.19-1.84-12.38-2.78-18.56
			c-0.32-2.11-0.83-4.19-1.05-6.31c-0.68-6.43-1.39-12.86-1.83-19.3c-0.54-7.84-0.87-15.7-1.23-23.56
			c-0.23-5.19-0.42-10.39-0.51-15.58c-0.12-7.39-0.3-14.79-0.16-22.19c0.18-9.39,0.65-18.78,0.99-28.17c0.08-2.2,0.07-4.4,0.23-6.59
			c0.04-0.57,0.45-1.39,0.91-1.59c0.72-0.32,1.08,0.49,1.46,1.04c0.9,1.32,1.78,2.66,2.77,3.91c4.17,5.27,8.4,10.48,12.56,15.75
			c4.71,5.95,9.36,11.94,14.05,17.9c6.13,7.8,12.28,15.58,18.41,23.39c6.91,8.8,13.78,17.63,20.7,26.42
			c6.3,8.01,12.66,15.97,18.97,23.97c9,11.4,17.99,22.8,26.97,34.22c6.87,8.74,13.71,17.51,20.57,26.26
			c5.3,6.76,10.63,13.49,15.95,20.24c5.24,6.64,10.47,13.28,15.71,19.92c4.34,5.49,8.7,10.95,13.03,16.45
			c7.37,9.37,14.72,18.77,22.09,28.14c6.22,7.9,12.47,15.78,18.7,23.68c4.74,6.02,9.45,12.06,14.2,18.07
			c4,5.07,8.04,10.12,12.03,15.19c4.49,5.7,8.94,11.43,13.43,17.13c4.16,5.28,8.36,10.52,12.52,15.8c3.71,4.7,7.37,9.44,11.06,14.15
			c2.5,3.19,5.04,6.36,7.54,9.56c0.7,0.9,1.56,1.45,2.69,1.51c0.6,0.04,1.2,0.04,1.8,0.04c12.8,0,25.6,0,38.4,0
			c0.4,0,0.8,0.02,1.2-0.01c1.34-0.12,1.77-0.55,1.8-1.89c0.03-1.27-0.04-2.53-0.05-3.8c-0.11-26.46,0.16-52.92-1.11-79.37
			c-0.79-16.44-1.68-32.88-3.13-49.28c-0.2-2.26-0.54-4.5-0.8-6.75c-0.4-3.44-0.75-6.89-1.19-10.33c-0.8-6.14-1.64-12.28-2.49-18.41
			c-0.11-0.79-0.34-1.56-0.5-2.35c-0.42-2.02-1.07-4.03-1.2-6.07c-0.17-2.62-0.75-5.13-1.3-7.66c-0.76-3.44-1.41-6.91-2.09-10.37
			c-0.12-0.59-0.12-1.2-0.25-1.78c-0.32-1.49-0.67-2.98-1.03-4.46c-0.99-4.07-1.98-8.14-2.98-12.2c-0.84-3.42-1.7-6.84-2.56-10.25
			c-0.06-0.26-0.23-0.48-0.31-0.74c-1.03-3.23-2.07-6.45-3.06-9.69c-0.89-2.92-1.71-5.86-2.57-8.79c-0.09-0.32-0.27-0.61-0.38-0.93
			c-0.42-1.19-0.81-2.38-1.24-3.57c-0.31-0.88-0.65-1.74-0.98-2.61c-0.26-0.68-0.56-1.35-0.8-2.04c-0.9-2.56-1.78-5.14-2.68-7.7
			c-0.11-0.31-0.35-0.57-0.48-0.87c-0.35-0.79-0.67-1.59-0.99-2.39c-0.35-0.86-0.67-1.73-1.03-2.59c-0.54-1.28-1.12-2.54-1.65-3.83
			c-0.71-1.72-1.33-3.48-2.08-5.17c-0.97-2.18-2.06-4.31-3.08-6.46c-1.19-2.51-2.44-5.01-3.54-7.56c-0.79-1.84-1.78-3.53-2.79-5.25
			c-1.3-2.23-2.32-4.62-3.5-6.92c-0.72-1.41-1.55-2.77-2.28-4.18c-0.92-1.76-1.73-3.59-2.73-5.3c-2.51-4.3-5.08-8.55-7.65-12.81
			c-0.86-1.42-1.82-2.77-2.74-4.15c-0.99-1.49-1.99-2.98-2.98-4.47c-1.66-2.48-3.28-4.99-4.99-7.44c-1.55-2.24-3.19-4.42-4.79-6.62
			c-2.35-3.22-4.62-6.5-7.08-9.63c-2.96-3.76-6.06-7.41-9.18-11.05c-5.06-5.9-10.06-11.87-15.32-17.59
			c-4.86-5.29-9.99-10.34-15.06-15.43c-2.63-2.64-5.4-5.14-8.07-7.75c-0.77-0.75-1.54-0.97-2.52-0.5c-1.38,0.66-2.79,1.24-4.15,1.94
			c-3.83,1.96-7.64,3.96-11.45,5.95c-1.52,0.79-3.05,1.59-4.56,2.4c-1.98,1.06-3.94,2.15-5.93,3.19c-1.94,1.01-3.92,1.93-5.87,2.93
			c-1.83,0.94-3.63,1.93-5.44,2.89c-1.29,0.68-2.57,1.37-3.88,2.01c-1.9,0.93-3.83,1.81-5.74,2.74c-1.19,0.58-2.36,1.19-3.55,1.79
			c-0.75,0.38-1.35,0.86-1.39,1.79c-0.05,0.97,0.61,1.39,1.34,1.79c1.22,0.67,2.43,1.36,3.62,2.08c1.75,1.07,3.51,2.13,5.22,3.26
			c3.33,2.19,6.64,4.41,9.93,6.64c2.47,1.67,4.94,3.35,7.37,5.09c2.21,1.59,4.39,3.23,6.53,4.9c4.61,3.59,9.34,7.06,13.76,10.88
			c7.09,6.14,14.03,12.48,20.48,19.3c4.39,4.64,8.76,9.31,12.9,14.17c3.58,4.2,6.86,8.64,10.19,13.04c2.45,3.23,4.86,6.49,7.12,9.85
			c2.74,4.08,5.31,8.27,7.92,12.43c0.88,1.4,1.65,2.87,2.44,4.33c0.91,1.69,1.78,3.41,2.66,5.12c1.21,2.35,2.44,4.7,3.63,7.06
			c0.86,1.72,1.68,3.45,2.48,5.2c1.19,2.58,2.36,5.18,3.52,7.77c1.03,2.3,2.04,4.61,3.04,6.93c0.31,0.73,0.55,1.5,0.81,2.25
			c0.27,0.75,0.51,1.51,0.8,2.25c0.97,2.54,2.04,5.05,2.92,7.62c1.33,3.89,2.56,7.82,3.79,11.75c0.77,2.47,1.47,4.97,2.19,7.46
			c0.09,0.32,0.12,0.66,0.2,0.98c0.43,1.74,0.88,3.48,1.32,5.22c0.26,1.03,0.53,2.06,0.77,3.09c0.39,1.68,0.76,3.37,1.14,5.06
			c0.3,1.36,0.62,2.72,0.9,4.09c0.36,1.76,0.71,3.52,1.04,5.29c0.36,1.89,0.72,3.79,1.05,5.69c0.16,0.92,0.14,1.88,0.39,2.77
			c1.8,6.32,2.11,12.88,3.05,19.33c1.25,8.49,1.73,17.1,2.42,25.67c0.3,3.72,0.28,7.46,0.46,11.19c0.28,5.72,0.75,11.44,0.89,17.17
			c0.18,7.39,0.25,14.79,0.13,22.18c-0.18,11.06-0.57,22.12-0.88,33.17c-0.01,0.4,0.02,0.85-0.15,1.18
			c-0.26,0.48-0.61,1.07-1.06,1.24c-0.28,0.1-0.93-0.4-1.22-0.77c-2.54-3.24-5.04-6.52-7.56-9.78c-4.28-5.53-8.53-11.07-12.85-16.56
			c-6.59-8.38-13.24-16.71-19.84-25.07c-4.21-5.33-8.36-10.71-12.57-16.05c-3.83-4.87-7.71-9.69-11.55-14.55
			c-4.17-5.28-8.3-10.59-12.47-15.87c-7.34-9.31-14.71-18.6-22.05-27.92c-4.2-5.34-8.36-10.71-12.57-16.05
			c-4.25-5.38-8.56-10.72-12.8-16.11c-6.47-8.21-12.88-16.47-19.34-24.69c-4.36-5.55-8.77-11.06-13.13-16.61
			c-4.28-5.44-8.52-10.92-12.81-16.36c-7.1-9-14.23-17.96-21.32-26.96c-4.95-6.28-9.84-12.6-14.78-18.88
			c-5.07-6.44-10.18-12.83-15.26-19.26c-4.41-5.59-8.79-11.21-13.19-16.82c-3.12-3.98-6.26-7.95-9.38-11.94
			c-3.41-4.35-6.8-8.71-10.23-13.04c-2.39-3.03-4.85-6.01-7.24-9.03c-3.18-4.02-6.31-8.06-9.48-12.08c-1.48-1.88-3.04-3.7-4.52-5.59
			c-3.82-4.87-7.67-9.71-11.37-14.66c-1.14-1.53-2.43-2.01-4.24-2c-11.13,0.05-22.27,0.03-33.4,0.03c-3.73,0-7.47,0-11.2,0.01
			c-1.69,0-2.15,0.45-2.24,2.09c-0.01,0.27,0,0.53,0,0.8C64.54,55.11,64.54,69.04,64.54,82.98z"/>
		<path class="st0" d="M64.54,82.98c0-13.93,0-27.86,0-41.8c0-0.27-0.02-0.53,0-0.8c0.09-1.64,0.56-2.08,2.24-2.09
			c3.73-0.01,7.47-0.01,11.2-0.01c11.13,0,22.27,0.03,33.4-0.03c1.81-0.01,3.1,0.47,4.24,2c3.71,4.95,7.56,9.79,11.37,14.66
			c1.48,1.89,3.04,3.71,4.52,5.59c3.17,4.02,6.31,8.07,9.48,12.08c2.39,3.03,4.85,6.01,7.24,9.03c3.42,4.33,6.81,8.7,10.23,13.04
			c3.12,3.98,6.26,7.95,9.38,11.94c4.4,5.6,8.78,11.22,13.19,16.82c5.07,6.43,10.19,12.83,15.26,19.26
			c4.94,6.28,9.83,12.6,14.78,18.88c7.09,9,14.23,17.97,21.32,26.96c4.29,5.44,8.53,10.92,12.81,16.36
			c4.36,5.55,8.77,11.06,13.13,16.61c6.46,8.22,12.88,16.47,19.34,24.69c4.24,5.39,8.55,10.72,12.8,16.11
			c4.21,5.33,8.36,10.71,12.57,16.05c7.34,9.31,14.71,18.61,22.05,27.92c4.17,5.28,8.3,10.59,12.47,15.87
			c3.84,4.86,7.72,9.69,11.55,14.55c4.2,5.34,8.36,10.71,12.57,16.05c6.6,8.37,13.25,16.7,19.84,25.07
			c4.32,5.49,8.58,11.04,12.85,16.56c2.52,3.26,5.02,6.54,7.56,9.78c0.3,0.38,0.94,0.88,1.22,0.77c0.45-0.17,0.8-0.76,1.06-1.24
			c0.17-0.33,0.14-0.78,0.15-1.18c0.31-11.06,0.7-22.11,0.88-33.17c0.12-7.39,0.05-14.79-0.13-22.18
			c-0.14-5.73-0.61-11.45-0.89-17.17c-0.18-3.73-0.16-7.47-0.46-11.19c-0.69-8.57-1.17-17.18-2.42-25.67
			c-0.95-6.44-1.25-13.01-3.05-19.33c-0.25-0.89-0.23-1.85-0.39-2.77c-0.33-1.9-0.69-3.79-1.05-5.69c-0.34-1.76-0.68-3.53-1.04-5.29
			c-0.28-1.37-0.6-2.73-0.9-4.09c-0.38-1.69-0.75-3.37-1.14-5.06c-0.24-1.04-0.51-2.06-0.77-3.09c-0.44-1.74-0.88-3.48-1.32-5.22
			c-0.08-0.32-0.11-0.66-0.2-0.98c-0.72-2.49-1.42-4.98-2.19-7.46c-1.23-3.93-2.45-7.85-3.79-11.75c-0.88-2.57-1.95-5.08-2.92-7.62
			c-0.29-0.74-0.53-1.5-0.8-2.25c-0.27-0.75-0.5-1.52-0.81-2.25c-0.99-2.32-2.01-4.62-3.04-6.93c-1.16-2.6-2.33-5.19-3.52-7.77
			c-0.8-1.74-1.62-3.48-2.48-5.2c-1.19-2.37-2.41-4.71-3.63-7.06c-0.88-1.71-1.75-3.42-2.66-5.12c-0.78-1.46-1.56-2.93-2.44-4.33
			c-2.61-4.17-5.18-8.35-7.92-12.43c-2.26-3.36-4.67-6.62-7.12-9.85c-3.33-4.4-6.62-8.84-10.19-13.04
			c-4.14-4.86-8.51-9.53-12.9-14.17c-6.46-6.82-13.39-13.16-20.48-19.3c-4.42-3.82-9.15-7.28-13.76-10.88
			c-2.15-1.67-4.32-3.31-6.53-4.9c-2.42-1.74-4.9-3.42-7.37-5.09c-3.3-2.23-6.61-4.45-9.93-6.64c-1.71-1.13-3.47-2.19-5.22-3.26
			c-1.19-0.72-2.4-1.41-3.62-2.08c-0.73-0.4-1.39-0.82-1.34-1.79c0.04-0.93,0.64-1.41,1.39-1.79c1.18-0.6,2.35-1.21,3.55-1.79
			c1.91-0.92,3.84-1.8,5.74-2.74c1.31-0.64,2.59-1.33,3.88-2.01c1.82-0.96,3.62-1.95,5.44-2.89c1.94-1,3.93-1.92,5.87-2.93
			c1.99-1.03,3.95-2.13,5.93-3.19c1.52-0.81,3.04-1.61,4.56-2.4c3.82-1.99,7.63-3.99,11.45-5.95c1.36-0.7,2.77-1.28,4.15-1.94
			c0.98-0.47,1.75-0.25,2.52,0.5c2.67,2.6,5.44,5.1,8.07,7.75c5.07,5.1,10.2,10.14,15.06,15.43c5.26,5.73,10.26,11.69,15.32,17.59
			c3.12,3.63,6.21,7.29,9.18,11.05c2.47,3.13,4.73,6.41,7.08,9.63c1.61,2.2,3.24,4.38,4.79,6.62c1.7,2.45,3.33,4.96,4.99,7.44
			c0.99,1.49,1.99,2.98,2.98,4.47c0.92,1.38,1.88,2.73,2.74,4.15c2.58,4.25,5.15,8.51,7.65,12.81c1,1.71,1.8,3.54,2.73,5.3
			c0.74,1.41,1.56,2.77,2.28,4.18c1.18,2.3,2.2,4.69,3.5,6.92c1.01,1.72,2,3.41,2.79,5.25c1.09,2.56,2.34,5.05,3.54,7.56
			c1.02,2.16,2.11,4.29,3.08,6.46c0.76,1.7,1.38,3.45,2.08,5.17c0.53,1.29,1.11,2.55,1.65,3.83c0.36,0.86,0.68,1.73,1.03,2.59
			c0.32,0.8,0.65,1.6,0.99,2.39c0.13,0.3,0.37,0.56,0.48,0.87c0.9,2.56,1.78,5.14,2.68,7.7c0.24,0.69,0.54,1.36,0.8,2.04
			c0.33,0.87,0.67,1.73,0.98,2.61c0.42,1.19,0.82,2.38,1.24,3.57c0.11,0.31,0.28,0.61,0.38,0.93c0.86,2.93,1.68,5.87,2.57,8.79
			c0.99,3.24,2.04,6.46,3.06,9.69c0.08,0.25,0.24,0.48,0.31,0.74c0.86,3.42,1.72,6.83,2.56,10.25c1,4.07,1.99,8.13,2.98,12.2
			c0.36,1.48,0.71,2.97,1.03,4.46c0.13,0.58,0.13,1.19,0.25,1.78c0.68,3.46,1.33,6.93,2.09,10.37c0.56,2.54,1.13,5.05,1.3,7.66
			c0.14,2.04,0.78,4.05,1.2,6.07c0.16,0.78,0.39,1.56,0.5,2.35c0.84,6.14,1.69,12.27,2.49,18.41c0.45,3.44,0.79,6.89,1.19,10.33
			c0.26,2.25,0.6,4.49,0.8,6.75c1.45,16.4,2.34,32.83,3.13,49.28c1.27,26.45,1,52.91,1.11,79.37c0.01,1.27,0.08,2.53,0.05,3.8
			c-0.03,1.34-0.47,1.77-1.8,1.89c-0.4,0.04-0.8,0.01-1.2,0.01c-12.8,0-25.6,0-38.4,0c-0.6,0-1.2-0.01-1.8-0.04
			c-1.14-0.07-1.99-0.62-2.69-1.51c-2.5-3.2-5.03-6.37-7.54-9.56c-3.69-4.71-7.36-9.45-11.06-14.15
			c-4.16-5.28-8.36-10.52-12.52-15.8c-4.49-5.7-8.94-11.43-13.43-17.13c-4-5.08-8.03-10.12-12.03-15.19
			c-4.74-6.02-9.45-12.06-14.2-18.07c-6.23-7.9-12.48-15.78-18.7-23.68c-7.37-9.37-14.72-18.77-22.09-28.14
			c-4.33-5.5-8.69-10.96-13.03-16.45c-5.24-6.63-10.47-13.28-15.71-19.92c-5.32-6.74-10.64-13.48-15.95-20.24
			c-6.87-8.75-13.7-17.52-20.57-26.26c-8.98-11.42-17.97-22.82-26.97-34.22c-6.31-8-12.67-15.96-18.97-23.97
			c-6.92-8.79-13.79-17.62-20.7-26.42c-6.13-7.8-12.28-15.59-18.41-23.39c-4.69-5.96-9.35-11.95-14.05-17.9
			c-4.17-5.27-8.39-10.49-12.56-15.75c-0.99-1.25-1.87-2.59-2.77-3.91c-0.38-0.56-0.73-1.37-1.46-1.04
			c-0.46,0.21-0.87,1.02-0.91,1.59c-0.16,2.19-0.15,4.39-0.23,6.59c-0.34,9.39-0.81,18.78-0.99,28.17
			c-0.14,7.39,0.03,14.79,0.16,22.19c0.09,5.2,0.27,10.39,0.51,15.58c0.35,7.86,0.68,15.72,1.23,23.56
			c0.45,6.45,1.16,12.87,1.83,19.3c0.22,2.12,0.73,4.2,1.05,6.31c0.94,6.19,1.85,12.38,2.78,18.56c0.11,0.72,0.24,1.45,0.38,2.16
			c0.57,2.8,1.13,5.61,1.73,8.4c0.19,0.91,0.47,1.8,0.72,2.7c0.3,1.09,0.72,2.17,0.86,3.28c0.28,2.27,0.77,4.46,1.65,6.57
			c0.2,0.49,0.27,1.03,0.41,1.54c0.53,1.99,1.06,3.97,1.61,5.96c0.89,3.2,1.79,6.39,2.69,9.59c0.02,0.06,0.02,0.13,0.04,0.2
			c1.06,2.93,2.12,5.86,3.17,8.8c0.92,2.56,1.83,5.12,2.73,7.68c0.11,0.31,0.15,0.66,0.28,0.96c0.96,2.18,1.94,4.35,2.89,6.54
			c0.98,2.25,1.89,4.52,2.9,6.75c0.98,2.17,2.04,4.31,3.1,6.44c0.74,1.48,1.54,2.94,2.3,4.41c1.58,3.06,3.06,6.18,4.74,9.19
			c1.58,2.84,3.34,5.57,5.05,8.33c1.51,2.42,3.02,4.85,4.62,7.21c2.27,3.35,4.55,6.7,6.96,9.96c3.09,4.16,6.25,8.27,9.5,12.32
			c2.04,2.54,4.21,4.99,6.44,7.36c4.19,4.46,8.34,8.98,12.75,13.21c5.9,5.66,11.99,11.13,18.11,16.55c3.18,2.81,6.57,5.4,9.95,7.97
			c3.12,2.36,6.36,4.56,9.55,6.82c3.3,2.34,6.58,4.72,9.93,6.98c2.58,1.74,5.26,3.33,7.89,4.99c1.41,0.88,2.81,1.76,4.23,2.62
			c0.79,0.48,1.59,0.95,2.4,1.4c0.73,0.4,1.52,0.88,1.28,1.8c-0.16,0.63-0.67,1.35-1.23,1.65c-1.8,0.98-3.72,1.73-5.54,2.66
			c-1.83,0.93-3.6,1.97-5.41,2.94c-1.76,0.93-3.53,1.83-5.3,2.74c-2.24,1.15-4.47,2.32-6.72,3.44c-1.89,0.94-3.84,1.79-5.72,2.75
			c-1.88,0.96-3.72,2-5.58,3.01c-0.41,0.22-0.79,0.48-1.2,0.69c-2.28,1.2-4.56,2.4-6.86,3.57c-1.83,0.93-3.69,1.8-5.53,2.71
			c-0.84,0.41-1.66,0.84-2.49,1.26c-1.35,0.69-1.81,0.67-2.86-0.33c-2.85-2.7-5.71-5.39-8.49-8.16c-4.48-4.46-8.95-8.93-13.33-13.49
			c-2.21-2.29-4.2-4.8-6.31-7.18c-1.63-1.84-3.35-3.6-4.97-5.45c-1.79-2.06-3.51-4.17-5.25-6.28c-2.92-3.53-5.87-7.05-8.74-10.62
			c-1.83-2.28-3.58-4.62-5.31-6.98c-2.48-3.37-4.96-6.74-7.35-10.17c-1.71-2.45-3.26-5.01-4.91-7.5c-1.69-2.54-3.43-5.05-5.11-7.59
			c-0.7-1.05-1.31-2.15-1.95-3.24c-1.61-2.74-3.22-5.49-4.83-8.24c-1.04-1.77-2.1-3.53-3.1-5.32c-1.03-1.85-1.98-3.74-2.97-5.61
			c-0.81-1.52-1.63-3.04-2.43-4.56c-1.69-3.22-3.43-6.43-5.04-9.69c-0.97-1.96-1.73-4.02-2.61-6.03c-0.72-1.64-1.49-3.26-2.22-4.89
			c-1.72-3.88-3.49-7.74-5.13-11.66c-1-2.38-1.78-4.85-2.69-7.26c-0.96-2.54-1.97-5.07-2.93-7.61c-0.33-0.87-0.6-1.76-0.9-2.63
			c-0.32-0.94-0.66-1.88-0.98-2.82c-0.34-1-0.68-2.01-1.02-3.02c-0.36-1.07-0.72-2.14-1.06-3.22c-0.32-1.01-0.6-2.04-0.9-3.06
			c-0.26-0.89-0.52-1.78-0.79-2.68c-0.38-1.27-0.77-2.55-1.14-3.82c-0.09-0.32-0.1-0.66-0.2-0.98c-1.07-3.56-2.15-7.12-3.21-10.68
			c-0.23-0.76-0.41-1.54-0.61-2.31c-0.4-1.54-0.78-3.09-1.19-4.63c-0.1-0.39-0.28-0.75-0.37-1.14c-0.83-3.63-1.68-7.25-2.48-10.89
			c-0.52-2.34-1.03-4.68-1.45-7.04c-0.77-4.32-1.46-8.66-2.2-12.98c-0.25-1.44-0.59-2.87-0.82-4.31c-0.74-4.67-1.49-9.34-2.17-14.01
			c-1.66-11.27-3.14-22.56-3.83-33.95c-0.23-3.79-0.86-7.55-1.09-11.34c-0.46-7.58-0.85-15.17-1.14-22.77
			c-0.49-12.72-0.91-25.44-1.31-38.16c-0.1-3.26-0.02-6.53-0.02-9.8C64.69,82.98,64.61,82.98,64.54,82.98z"/>
	</g>
</g>
</svg>
